<svg xmlns="http://www.w3.org/2000/svg" viewBox="-25 -31 229.541 88.892" width="728" height="216">
  <g id="LOGO-REDZEN" transform="translate(0)">
      <g id="REDZEN" transform="translate(34.268 0.861)" style="mix-blend-mode: normal;isolation: isolate">
      <g id="Grupo_238" data-name="Grupo 238" style="mix-blend-mode: normal;isolation: isolate">
          <path id="Trazado_862" data-name="Trazado 862" d="M851.354-47.072h-6.22L838.7-55.342h-4.063v8.271h-5.61v-25.17h11.937c6.078,0,9.313,4.064,9.313,8.486-.036,3.271-1.007,6.184-5.825,7.91l6.9,8.342ZM834.636-67.424v7.336h6.4a3.5,3.5,0,0,0,3.7-3.524,3.7,3.7,0,0,0-3.777-3.812Z" transform="translate(-829.026 72.242)" fill="#222"></path>
          <path id="Trazado_863" data-name="Trazado 863" d="M871.391-47.072H852.226v-25.17h18.662V-67.1h-13.16v4.853h12.4v4.926h-12.4v5.069h13.663Z" transform="translate(-826.156 72.242)" fill="#222"></path>
          <path id="Trazado_864" data-name="Trazado 864" d="M883.537-72.242c8.665,0,12.513,5.825,12.513,12.4s-3.7,12.765-12.513,12.765H873.218v-25.17ZM878.756-52.25h4.781c5.466,0,6.975-4.027,6.975-7.658s-1.726-7.264-6.975-7.264h-4.781Z" transform="translate(-823.559 72.242)" fill="#222"></path>
          <path id="Trazado_865" data-name="Trazado 865" d="M896.037-72.242h19.237V-69.8L903.192-52.322h12.37v5.25H895.426v-2.913l12.3-17.439H896.037Z" transform="translate(-820.811 72.242)" fill="#222"></path>
          <path id="Trazado_866" data-name="Trazado 866" d="M936.19-47.072H917.025v-25.17h18.662V-67.1h-13.16v4.853h12.4v4.926h-12.4v5.069H936.19Z" transform="translate(-818.139 72.242)" fill="#222"></path>
          <path id="Trazado_867" data-name="Trazado 867" d="M955.528-55.882l-.36-7.91v-8.45h5.646v25.17H956L943.483-63.18l.215,8.269v7.839h-5.68v-25.17h4.818Z" transform="translate(-815.542 72.242)" fill="#222"></path>
      </g>
      </g>
      <path id="Trazado_326" data-name="Trazado 326" d="M825.426-46.587V-73.008h-26.9v26.892h26.9Zm-5.956-1.871a6.013,6.013,0,0,1,1.348-2.231,6.121,6.121,0,0,1,2.247-1.348v3.578ZM805.106-66.466a9.278,9.278,0,0,0,2.343-4.2h2.722a11.664,11.664,0,0,1-9.3,9.283v-2.722A9.306,9.306,0,0,0,805.106-66.466Zm4.176,4.184a15.241,15.241,0,0,0,4.234-8.387h2.27a17.556,17.556,0,0,1-4.482,9.447c-.151.18-.271.363-.436.53s-.371.3-.548.46a17.574,17.574,0,0,1-9.446,4.461v-2.277a15.277,15.277,0,0,0,8.409-4.233Zm8.436-3.01a21.235,21.235,0,0,0,1.4-5.377h3.955v3.989a20.983,20.983,0,0,0-5.355,1.389Zm-4.642,6.864c.165-.18.369-.3.546-.467a17.585,17.585,0,0,1,9.447-4.453v2.273a14.985,14.985,0,0,0-12.627,12.617h-2.279a17.531,17.531,0,0,1,4.482-9.455C812.791-58.078,812.914-58.266,813.075-58.429Zm3.909,3.907a12.006,12.006,0,0,1,6.084-3.217v2.725a8.8,8.8,0,0,0-6.576,6.555h-2.718a11.977,11.977,0,0,1,3.215-6.068ZM804.472-70.668a6.018,6.018,0,0,1-1.348,2.234,6.162,6.162,0,0,1-2.247,1.348v-3.587Zm-3.6,18.232a21.983,21.983,0,0,0,5.353-1.392,21.343,21.343,0,0,0-1.4,5.369h-3.955Z" transform="translate(-798.531 73.008)" fill="#d90010"></path>
  </g>
</svg>
