<svg width="800" height="1300" viewBox="0 0 400 650" role="img" xmlns="http://www.w3.org/2000/svg">
  <title>Passaport Lúdic — Frik'N'Dau</title>

  <rect x="20" y="20" width="360" height="610" rx="6" fill="#f5f0e8" stroke="#1a5c2a" stroke-width="2.5"/>
  <rect x="28" y="28" width="344" height="594" rx="4" fill="none" stroke="#1a5c2a" stroke-width="0.8"/>

  <rect x="20" y="20" width="360" height="44" rx="6" fill="#1a5c2a"/>
  <rect x="20" y="50" width="360" height="14" fill="#1a5c2a"/>

  <!-- Extra space: y=64 to y=210 for conditions text -->

  <text x="38" y="218" font-family="sans-serif" font-size="9" fill="#1a5c2a" letter-spacing="1.5">FILA 1</text>
  <rect x="38" y="224" width="100" height="100" rx="4" fill="#e8f5eb" stroke="#1a5c2a" stroke-width="1.2" stroke-dasharray="5,2.5"/>
  <text x="88" y="284" text-anchor="middle" font-family="sans-serif" font-size="40" fill="#1a5c2a" opacity="0.12">&#x2726;</text>
  <text x="46" y="238" font-family="Impact, sans-serif" font-size="11" fill="#2d8a45">1</text>

  <rect x="150" y="224" width="100" height="100" rx="4" fill="#e8f5eb" stroke="#1a5c2a" stroke-width="1.2" stroke-dasharray="5,2.5"/>
  <text x="200" y="284" text-anchor="middle" font-family="sans-serif" font-size="40" fill="#1a5c2a" opacity="0.12">&#x2726;</text>
  <text x="158" y="238" font-family="Impact, sans-serif" font-size="11" fill="#2d8a45">2</text>

  <rect x="262" y="224" width="100" height="100" rx="4" fill="#e8f5eb" stroke="#1a5c2a" stroke-width="1.2" stroke-dasharray="5,2.5"/>
  <text x="312" y="284" text-anchor="middle" font-family="sans-serif" font-size="40" fill="#1a5c2a" opacity="0.12">&#x2726;</text>
  <text x="270" y="238" font-family="Impact, sans-serif" font-size="11" fill="#2d8a45">3</text>

  <text x="38" y="344" font-family="sans-serif" font-size="9" fill="#1a5c2a" letter-spacing="1.5">FILA 2</text>
  <rect x="38" y="350" width="100" height="100" rx="4" fill="#e8f5eb" stroke="#1a5c2a" stroke-width="1.2" stroke-dasharray="5,2.5"/>
  <text x="88" y="410" text-anchor="middle" font-family="sans-serif" font-size="40" fill="#1a5c2a" opacity="0.12">&#x2726;</text>
  <text x="46" y="364" font-family="Impact, sans-serif" font-size="11" fill="#2d8a45">1</text>

  <rect x="150" y="350" width="100" height="100" rx="4" fill="#e8f5eb" stroke="#1a5c2a" stroke-width="1.2" stroke-dasharray="5,2.5"/>
  <text x="200" y="410" text-anchor="middle" font-family="sans-serif" font-size="40" fill="#1a5c2a" opacity="0.12">&#x2726;</text>
  <text x="158" y="364" font-family="Impact, sans-serif" font-size="11" fill="#2d8a45">2</text>

  <rect x="262" y="350" width="100" height="100" rx="4" fill="#e8f5eb" stroke="#1a5c2a" stroke-width="1.2" stroke-dasharray="5,2.5"/>
  <text x="312" y="410" text-anchor="middle" font-family="sans-serif" font-size="40" fill="#1a5c2a" opacity="0.12">&#x2726;</text>
  <text x="270" y="364" font-family="Impact, sans-serif" font-size="11" fill="#2d8a45">3</text>

  <text x="38" y="470" font-family="sans-serif" font-size="9" fill="#1a5c2a" letter-spacing="1.5">FILA 3</text>
  <rect x="38" y="476" width="100" height="100" rx="4" fill="#e8f5eb" stroke="#1a5c2a" stroke-width="1.2" stroke-dasharray="5,2.5"/>
  <text x="88" y="536" text-anchor="middle" font-family="sans-serif" font-size="40" fill="#1a5c2a" opacity="0.12">&#x2726;</text>
  <text x="46" y="490" font-family="Impact, sans-serif" font-size="11" fill="#2d8a45">1</text>

  <rect x="150" y="476" width="100" height="100" rx="4" fill="#e8f5eb" stroke="#1a5c2a" stroke-width="1.2" stroke-dasharray="5,2.5"/>
  <text x="200" y="536" text-anchor="middle" font-family="sans-serif" font-size="40" fill="#1a5c2a" opacity="0.12">&#x2726;</text>
  <text x="158" y="490" font-family="Impact, sans-serif" font-size="11" fill="#2d8a45">2</text>

  <rect x="262" y="476" width="100" height="100" rx="4" fill="#e8f5eb" stroke="#1a5c2a" stroke-width="1.2" stroke-dasharray="5,2.5"/>
  <text x="312" y="536" text-anchor="middle" font-family="sans-serif" font-size="40" fill="#1a5c2a" opacity="0.12">&#x2726;</text>
  <text x="270" y="490" font-family="Impact, sans-serif" font-size="11" fill="#2d8a45">3</text>

  <rect x="20" y="590" width="360" height="40" rx="6" fill="#1a5c2a"/>
  <rect x="20" y="590" width="360" height="20" fill="#1a5c2a"/>

</svg>
