<svg width="1360" height="800" viewBox="0 0 680 400" role="img" xmlns="http://www.w3.org/2000/svg">
  <title>Passaport Lúdic — Frik'N'Dau</title>

  <!-- Background -->
  <rect x="20" y="20" width="640" height="360" rx="6" fill="#f5f0e8" stroke="#1a5c2a" stroke-width="2.5"/>
  <rect x="28" y="28" width="624" height="344" rx="4" fill="none" stroke="#1a5c2a" stroke-width="0.8"/>

  <!-- Header -->
  <rect x="20" y="20" width="640" height="44" rx="6" fill="#1a5c2a"/>
  <rect x="20" y="50" width="640" height="14" fill="#1a5c2a"/>

  <!-- Row 1 label -->
  <text x="48" y="84" font-family="sans-serif" font-size="9" fill="#1a5c2a" letter-spacing="1.5">FILA 1</text>

  <!-- Row 1 boxes -->
  <rect x="48" y="90" width="108" height="108" rx="4" fill="#e8f5eb" stroke="#1a5c2a" stroke-width="1.2" stroke-dasharray="5,2.5"/>
  <text x="102" y="154" text-anchor="middle" font-family="sans-serif" font-size="44" fill="#1a5c2a" opacity="0.12">✦</text>
  <text x="57" y="104" font-family="Impact, sans-serif" font-size="11" fill="#2d8a45">1</text>

  <rect x="168" y="90" width="108" height="108" rx="4" fill="#e8f5eb" stroke="#1a5c2a" stroke-width="1.2" stroke-dasharray="5,2.5"/>
  <text x="222" y="154" text-anchor="middle" font-family="sans-serif" font-size="44" fill="#1a5c2a" opacity="0.12">✦</text>
  <text x="177" y="104" font-family="Impact, sans-serif" font-size="11" fill="#2d8a45">2</text>

  <rect x="288" y="90" width="108" height="108" rx="4" fill="#e8f5eb" stroke="#1a5c2a" stroke-width="1.2" stroke-dasharray="5,2.5"/>
  <text x="342" y="154" text-anchor="middle" font-family="sans-serif" font-size="44" fill="#1a5c2a" opacity="0.12">✦</text>
  <text x="297" y="104" font-family="Impact, sans-serif" font-size="11" fill="#2d8a45">3</text>

  <rect x="408" y="90" width="108" height="108" rx="4" fill="#e8f5eb" stroke="#1a5c2a" stroke-width="1.2" stroke-dasharray="5,2.5"/>
  <text x="462" y="154" text-anchor="middle" font-family="sans-serif" font-size="44" fill="#1a5c2a" opacity="0.12">✦</text>
  <text x="417" y="104" font-family="Impact, sans-serif" font-size="11" fill="#2d8a45">4</text>

  <rect x="524" y="90" width="112" height="108" rx="4" fill="#e8f5eb" stroke="#1a5c2a" stroke-width="1.2" stroke-dasharray="5,2.5"/>
  <text x="580" y="154" text-anchor="middle" font-family="sans-serif" font-size="44" fill="#1a5c2a" opacity="0.12">✦</text>
  <text x="533" y="104" font-family="Impact, sans-serif" font-size="11" fill="#2d8a45">5</text>

  <!-- Row 2 label -->
  <text x="48" y="218" font-family="sans-serif" font-size="9" fill="#1a5c2a" letter-spacing="1.5">FILA 2</text>

  <!-- Row 2 boxes -->
  <rect x="48" y="224" width="108" height="108" rx="4" fill="#e8f5eb" stroke="#1a5c2a" stroke-width="1.2" stroke-dasharray="5,2.5"/>
  <text x="102" y="288" text-anchor="middle" font-family="sans-serif" font-size="44" fill="#1a5c2a" opacity="0.12">✦</text>
  <text x="57" y="238" font-family="Impact, sans-serif" font-size="11" fill="#2d8a45">1</text>

  <rect x="168" y="224" width="108" height="108" rx="4" fill="#e8f5eb" stroke="#1a5c2a" stroke-width="1.2" stroke-dasharray="5,2.5"/>
  <text x="222" y="288" text-anchor="middle" font-family="sans-serif" font-size="44" fill="#1a5c2a" opacity="0.12">✦</text>
  <text x="177" y="238" font-family="Impact, sans-serif" font-size="11" fill="#2d8a45">2</text>

  <rect x="288" y="224" width="108" height="108" rx="4" fill="#e8f5eb" stroke="#1a5c2a" stroke-width="1.2" stroke-dasharray="5,2.5"/>
  <text x="342" y="288" text-anchor="middle" font-family="sans-serif" font-size="44" fill="#1a5c2a" opacity="0.12">✦</text>
  <text x="297" y="238" font-family="Impact, sans-serif" font-size="11" fill="#2d8a45">3</text>

  <rect x="408" y="224" width="108" height="108" rx="4" fill="#e8f5eb" stroke="#1a5c2a" stroke-width="1.2" stroke-dasharray="5,2.5"/>
  <text x="462" y="288" text-anchor="middle" font-family="sans-serif" font-size="44" fill="#1a5c2a" opacity="0.12">✦</text>
  <text x="417" y="238" font-family="Impact, sans-serif" font-size="11" fill="#2d8a45">4</text>

  <rect x="524" y="224" width="112" height="108" rx="4" fill="#e8f5eb" stroke="#1a5c2a" stroke-width="1.2" stroke-dasharray="5,2.5"/>
  <text x="580" y="288" text-anchor="middle" font-family="sans-serif" font-size="44" fill="#1a5c2a" opacity="0.12">✦</text>
  <text x="533" y="238" font-family="Impact, sans-serif" font-size="11" fill="#2d8a45">5</text>

  <!-- Footer -->
  <rect x="20" y="346" width="640" height="34" rx="6" fill="#1a5c2a"/>
  <rect x="20" y="346" width="640" height="17" fill="#1a5c2a"/>

</svg>
