<svg width="1360" height="1000" viewBox="0 0 680 500" role="img" xmlns="http://www.w3.org/2000/svg">
  <title>Passaport Lúdic — Frik'N'Dau</title>

  <rect x="20" y="20" width="640" height="460" rx="6" fill="#f5f0e8" stroke="#1a5c2a" stroke-width="2.5"/>
  <rect x="28" y="28" width="624" height="444" rx="4" fill="none" stroke="#1a5c2a" stroke-width="0.8"/>

  <rect x="20" y="20" width="640" height="44" rx="6" fill="#1a5c2a"/>
  <rect x="20" y="50" width="640" height="14" fill="#1a5c2a"/>

  <text x="48" y="178" font-family="sans-serif" font-size="9" fill="#1a5c2a" letter-spacing="1.5">FILA 1</text>

  <rect x="48" y="184" width="108" height="108" rx="4" fill="#e8f5eb" stroke="#1a5c2a" stroke-width="1.2" stroke-dasharray="5,2.5"/>
  <text x="102" y="248" text-anchor="middle" font-family="sans-serif" font-size="44" fill="#1a5c2a" opacity="0.12">&#x2726;</text>
  <text x="57" y="198" font-family="Impact, sans-serif" font-size="11" fill="#2d8a45">1</text>

  <rect x="168" y="184" width="108" height="108" rx="4" fill="#e8f5eb" stroke="#1a5c2a" stroke-width="1.2" stroke-dasharray="5,2.5"/>
  <text x="222" y="248" text-anchor="middle" font-family="sans-serif" font-size="44" fill="#1a5c2a" opacity="0.12">&#x2726;</text>
  <text x="177" y="198" font-family="Impact, sans-serif" font-size="11" fill="#2d8a45">2</text>

  <rect x="288" y="184" width="108" height="108" rx="4" fill="#e8f5eb" stroke="#1a5c2a" stroke-width="1.2" stroke-dasharray="5,2.5"/>
  <text x="342" y="248" text-anchor="middle" font-family="sans-serif" font-size="44" fill="#1a5c2a" opacity="0.12">&#x2726;</text>
  <text x="297" y="198" font-family="Impact, sans-serif" font-size="11" fill="#2d8a45">3</text>

  <rect x="408" y="184" width="108" height="108" rx="4" fill="#e8f5eb" stroke="#1a5c2a" stroke-width="1.2" stroke-dasharray="5,2.5"/>
  <text x="462" y="248" text-anchor="middle" font-family="sans-serif" font-size="44" fill="#1a5c2a" opacity="0.12">&#x2726;</text>
  <text x="417" y="198" font-family="Impact, sans-serif" font-size="11" fill="#2d8a45">4</text>

  <rect x="524" y="184" width="112" height="108" rx="4" fill="#e8f5eb" stroke="#1a5c2a" stroke-width="1.2" stroke-dasharray="5,2.5"/>
  <text x="580" y="248" text-anchor="middle" font-family="sans-serif" font-size="44" fill="#1a5c2a" opacity="0.12">&#x2726;</text>
  <text x="533" y="198" font-family="Impact, sans-serif" font-size="11" fill="#2d8a45">5</text>

  <text x="48" y="312" font-family="sans-serif" font-size="9" fill="#1a5c2a" letter-spacing="1.5">FILA 2</text>

  <rect x="48" y="318" width="108" height="108" rx="4" fill="#e8f5eb" stroke="#1a5c2a" stroke-width="1.2" stroke-dasharray="5,2.5"/>
  <text x="102" y="382" text-anchor="middle" font-family="sans-serif" font-size="44" fill="#1a5c2a" opacity="0.12">&#x2726;</text>
  <text x="57" y="332" font-family="Impact, sans-serif" font-size="11" fill="#2d8a45">1</text>

  <rect x="168" y="318" width="108" height="108" rx="4" fill="#e8f5eb" stroke="#1a5c2a" stroke-width="1.2" stroke-dasharray="5,2.5"/>
  <text x="222" y="382" text-anchor="middle" font-family="sans-serif" font-size="44" fill="#1a5c2a" opacity="0.12">&#x2726;</text>
  <text x="177" y="332" font-family="Impact, sans-serif" font-size="11" fill="#2d8a45">2</text>

  <rect x="288" y="318" width="108" height="108" rx="4" fill="#e8f5eb" stroke="#1a5c2a" stroke-width="1.2" stroke-dasharray="5,2.5"/>
  <text x="342" y="382" text-anchor="middle" font-family="sans-serif" font-size="44" fill="#1a5c2a" opacity="0.12">&#x2726;</text>
  <text x="297" y="332" font-family="Impact, sans-serif" font-size="11" fill="#2d8a45">3</text>

  <rect x="408" y="318" width="108" height="108" rx="4" fill="#e8f5eb" stroke="#1a5c2a" stroke-width="1.2" stroke-dasharray="5,2.5"/>
  <text x="462" y="382" text-anchor="middle" font-family="sans-serif" font-size="44" fill="#1a5c2a" opacity="0.12">&#x2726;</text>
  <text x="417" y="332" font-family="Impact, sans-serif" font-size="11" fill="#2d8a45">4</text>

  <rect x="524" y="318" width="112" height="108" rx="4" fill="#e8f5eb" stroke="#1a5c2a" stroke-width="1.2" stroke-dasharray="5,2.5"/>
  <text x="580" y="382" text-anchor="middle" font-family="sans-serif" font-size="44" fill="#1a5c2a" opacity="0.12">&#x2726;</text>
  <text x="533" y="332" font-family="Impact, sans-serif" font-size="11" fill="#2d8a45">5</text>

  <rect x="20" y="440" width="640" height="40" rx="6" fill="#1a5c2a"/>
  <rect x="20" y="440" width="640" height="20" fill="#1a5c2a"/>

</svg>
